<?xml version="1.0" encoding="UTF-8"?>
<svg width="44px" height="59px" viewBox="0 0 44 59" version="1.1" xmlns="http://www.w3.org/2000/svg" xmlns:xlink="http://www.w3.org/1999/xlink">
    <!-- Generator: Sketch 44.1 (41455) - http://www.bohemiancoding.com/sketch -->
    <title>Group 7</title>
    <desc>Created with Sketch.</desc>
    <defs>
        <path d="M34,54.9209498 L31.4149673,56.01551 L31.4149673,56.01551 C30.9063941,56.2308511 30.3195457,55.9931396 30.1042045,55.4845665 C30.0406068,55.3343671 30.0147147,55.1708909 30.0287856,55.00839 L30.2709551,52.2116401 L28.4311475,50.0913656 L28.4311475,50.0913656 C28.0691882,49.6742279 28.1139191,49.0426449 28.5310568,48.6806856 C28.6542521,48.5737864 28.8017261,48.4986446 28.9606218,48.4618113 L31.6953235,47.8278849 L33.1432926,45.4229231 L33.1432926,45.4229231 C33.4281626,44.9497766 34.0426563,44.7971484 34.5158027,45.0820184 C34.6555394,45.1661504 34.7725754,45.2831864 34.8567074,45.4229231 L36.3046765,47.8278849 L39.0393782,48.4618113 L39.0393782,48.4618113 C39.5773969,48.5865284 39.9124439,49.123782 39.7877268,49.6618006 C39.7508935,49.8206963 39.6757517,49.9681703 39.5688525,50.0913656 L37.7290449,52.2116401 L37.9712144,55.00839 L37.9712144,55.00839 C38.0188583,55.5586159 37.611435,56.0432851 37.0612092,56.0909289 C36.8987083,56.1049998 36.7352321,56.0791077 36.5850327,56.01551 L34,54.9209498 Z" id="path-1"></path>
    </defs>
    <g id="Page-1" stroke="none" stroke-width="1" fill="none" fill-rule="evenodd">
        <g id="втб_1" transform="translate(-943.000000, -904.000000)">
            <g id="Group-12" transform="translate(180.000000, 750.000000)">
                <g id="Group-4" transform="translate(0.000000, 135.000000)">
                    <g id="Group-10" transform="translate(648.000000, 19.000000)">
                        <g id="Group-7" transform="translate(116.000000, 0.000000)">
                            <path d="M20.085459,1 C25.0602354,1.59137931 27.5993689,2.90448276 27.7076732,4.94172414 C27.7076732,5.37137931 27.6547244,5.80103448 27.5464202,6.23068966 L26.4633774,13.9934483 C26.4417165,14.1503448 26.5620546,14.287931 26.7184941,14.3144828 C28.8027497,14.6741379 28.436922,16.7524138 25.6210108,20.5517241 L25.2190816,22.5648276 C25.1685396,24.1796552 24.2828513,25.4686207 22.5620167,26.4244828 C22.4801868,26.5572414 22.4127975,26.6658621 22.3333744,26.7986207 L22.3333744,30.9310345 L33.1638019,35.7586207 C35.2480575,36.7772414 36.1842878,38.3872414 35.970086,40.5862069 L35.970086,50.3427586 C35.970086,50.432069 35.929171,50.5189655 35.8617817,50.5768966 C30.9664285,54.7527586 25.2263019,56.8937931 18.641402,57 L17.519851,57 C10.9349511,56.8937931 5.14187579,54.7527586 0.140625049,50.5768966 C0.0708289604,50.5189655 0.029914012,50.4296552 0.029914012,50.3403448 L0.029914012,40.5862069 C-0.184287776,38.3872414 0.751942512,36.7772414 2.83619812,35.7586207 L13.5077793,30.9310345 L13.5077793,26.6658621 C13.5077793,26.5668966 13.4500171,26.4727586 13.3633736,26.4244828 C11.743623,25.4662069 10.855528,24.1796552 10.6990885,22.5648276 L10.3789892,20.5517241 C7.49087518,16.5834483 7.22372464,14.4906897 9.57513078,14.2758621 L8.37415671,8.32344828 C7.89280438,6.49862069 8.66778164,5.42448276 10.6990885,5.10344828 L11.5029469,5.10344828 C15.9939642,8.16172414 20.1384077,9.7162069 23.9362777,9.76931034 M12,5 C12.2801458,1.85947238 15.2809871,0.56953142 21,1.12561904 L21,1.12561904 M23,27.0539392 C22.2342514,27.416803 21.225525,27.7077478 19.9713662,27.9251392 C19.1000818,27.9627332 18.1993455,27.9627332 17.2716117,27.9251392 C16.017453,27.7077478 14.9277338,27.3988233 14,27" id="Stroke-56" stroke="#5E85B1" stroke-width="2" stroke-linecap="round"></path>
                            <g id="Star">
                                <use stroke="#FFFFFF" stroke-width="5" fill="#FFFFFF" fill-rule="evenodd" xlink:href="#path-1"></use>
                                <use stroke="#FF2141" stroke-width="2" xlink:href="#path-1"></use>
                            </g>
                        </g>
                    </g>
                </g>
            </g>
        </g>
    </g>
</svg>